<svg width="48" height="48" viewBox="0 0 48 48" fill="none" xmlns="http://www.w3.org/2000/svg">
<g clip-path="url(#clip0_2216_44)">
<path d="M40.0759 7.40333C42.3142 9.5434 43.9382 11.9888 45.1875 14.8125C45.3231 15.1189 45.3231 15.1189 45.4614 15.4314C47.7437 20.9849 47.6295 27.2752 45.375 32.8125C44.1154 35.7569 42.3389 38.2012 40.125 40.5C40.0138 40.623 39.9027 40.7461 39.7881 40.8728C38.7992 41.9376 37.587 42.7142 36.375 43.5C36.1971 43.6165 36.0192 43.733 35.836 43.853C30.9611 46.8728 24.7079 47.9048 19.1269 46.5947C13.0052 45.0572 7.70289 41.586 4.31251 36.1875C3.74885 35.2174 3.26618 34.213 2.81251 33.1875C2.72212 32.9833 2.63172 32.779 2.53859 32.5686C0.256316 27.0151 0.370566 20.7248 2.62501 15.1875C3.80809 12.4219 5.41808 10.0511 7.50001 7.87501C7.6686 7.68866 7.6686 7.68866 7.84059 7.49854C16.4909 -1.73092 31.1824 -0.665583 40.0759 7.40333Z" fill="#FEFEFE"/>
<path d="M10.125 15C10.7396 15.1358 11.0309 15.2762 11.4697 15.7339C11.5781 15.845 11.6864 15.9561 11.798 16.0705C11.911 16.189 12.0241 16.3076 12.1406 16.4297C12.3771 16.6722 12.6139 16.9144 12.8511 17.1562C12.964 17.2715 13.077 17.3868 13.1933 17.5056C13.5396 17.8521 13.8991 18.1763 14.2735 18.4922C15.3287 19.3852 16.2796 20.3921 17.25 21.375C17.3825 21.4716 17.515 21.5681 17.6515 21.6676C18.1971 22.3837 18.1001 23.0865 18.0881 23.9628C18.0885 24.1491 18.089 24.3355 18.0894 24.5275C18.0898 25.1435 18.0849 25.7593 18.0798 26.3752C18.0789 26.8025 18.0783 27.2298 18.078 27.657C18.0765 28.5522 18.0727 29.4472 18.0669 30.3424C18.0595 31.4925 18.0561 32.6426 18.0543 33.7927C18.0524 34.8866 18.0487 35.9805 18.0447 37.0745C18.0441 37.2846 18.0434 37.4947 18.0428 37.7112C18.0406 38.3025 18.0371 38.8937 18.0332 39.485C18.0327 39.662 18.0322 39.839 18.0317 40.0213C18.0216 41.2285 18.0216 41.2285 17.8125 41.4375C17.2603 41.4565 16.7125 41.4637 16.1602 41.4624C15.9115 41.4627 15.9115 41.4627 15.6579 41.4629C15.3067 41.4631 14.9555 41.4627 14.6043 41.4619C14.0648 41.4609 13.5254 41.4619 12.9859 41.4631C12.6455 41.463 12.3052 41.4628 11.9649 41.4624C11.8024 41.4628 11.6399 41.4632 11.4724 41.4636C10.3341 41.4591 10.3341 41.4591 10.125 41.25C10.1069 40.9107 10.1022 40.5707 10.1025 40.2309C10.1022 40.0098 10.102 39.7886 10.1017 39.5608C10.1024 39.316 10.103 39.0712 10.1037 38.819C10.1038 38.5604 10.1038 38.3018 10.1036 38.0431C10.1036 37.3389 10.1047 36.6346 10.106 35.9303C10.1072 35.1951 10.1073 34.4599 10.1075 33.7247C10.1081 32.3315 10.1096 30.9384 10.1115 29.5452C10.1136 27.9595 10.1146 26.3739 10.1156 24.7882C10.1175 21.5254 10.1208 18.2627 10.125 15Z" fill="#4980D7"/>
<path d="M37.3125 15.75C37.3125 24.2269 37.3125 32.7037 37.3125 41.4375C34.7756 41.4375 32.2387 41.4375 29.625 41.4375C29.5441 39.0544 29.4789 36.6722 29.4404 34.288C29.4219 33.1805 29.3969 32.074 29.3562 30.9671C29.0643 22.8133 29.0643 22.8133 30.8421 20.8227C31.4403 20.2863 32.0501 19.8291 32.7356 19.4104C33.992 18.617 35.0287 17.4958 36.0406 16.4191C36.6893 15.75 36.6893 15.75 37.3125 15.75Z" fill="#4A80D7"/>
<path d="M27.1875 25.125C27.3731 25.125 27.5587 25.125 27.75 25.125C27.7543 27.2486 27.7577 29.3723 27.7597 31.4959C27.7607 32.4819 27.762 33.4679 27.7641 34.4539C27.7662 35.4046 27.7673 36.3553 27.7678 37.306C27.7681 37.6696 27.7688 38.0331 27.7698 38.3967C27.7712 38.904 27.7714 39.4114 27.7713 39.9188C27.772 40.0706 27.7726 40.2225 27.7733 40.379C27.7714 41.4161 27.7714 41.4161 27.5625 41.625C27.0239 41.644 26.4899 41.6512 25.9512 41.6499C25.7896 41.6501 25.628 41.6503 25.4615 41.6504C25.1191 41.6506 24.7768 41.6502 24.4344 41.6494C23.9085 41.6484 23.3826 41.6494 22.8567 41.6506C22.5249 41.6505 22.1931 41.6503 21.8613 41.6499C21.7029 41.6503 21.5445 41.6507 21.3813 41.6511C20.2715 41.6466 20.2715 41.6466 20.0625 41.4375C20.0447 40.9411 20.039 40.4496 20.0412 39.9532C20.0412 39.7977 20.0412 39.6423 20.0411 39.4821C20.0413 38.9657 20.0427 38.4493 20.0442 37.9329C20.0445 37.5758 20.0448 37.2188 20.045 36.8617C20.0457 35.92 20.0475 34.9783 20.0496 34.0366C20.0515 33.0764 20.0524 32.1163 20.0533 31.1561C20.0554 29.2707 20.0586 27.3854 20.0625 25.5C20.7269 25.6434 21.0229 25.8306 21.501 26.321C21.6254 26.4473 21.7499 26.5736 21.8782 26.7037C22.006 26.8363 22.1339 26.9689 22.2656 27.1055C22.3964 27.2388 22.5271 27.3721 22.6619 27.5094C22.9842 27.8384 23.3052 28.1686 23.625 28.5C24.397 28.1465 24.9245 27.6243 25.5117 27.0234C25.6109 26.9241 25.7101 26.8248 25.8124 26.7224C26.2251 26.305 26.6011 25.9088 26.9407 25.4282C27.0221 25.3282 27.1036 25.2281 27.1875 25.125Z" fill="#4A81D7"/>
<path d="M26.592 8.20459C28.0826 9.0556 28.8844 10.1748 29.4375 11.8125C29.7096 13.4626 29.4195 14.7421 28.5 16.125C28.4185 16.2485 28.3371 16.372 28.2532 16.4993C27.4691 17.538 26.4335 18.2392 25.1305 18.4287C23.6773 18.5605 22.2167 18.5941 20.9729 17.74C20.3401 17.1898 19.8046 16.617 19.3125 15.9375C19.2308 15.8261 19.1491 15.7147 19.0649 15.5999C18.3542 14.4393 18.3762 13.1268 18.5625 11.8125C19.0317 10.3866 19.7331 9.2568 21 8.4375C21.1071 8.36064 21.2141 8.28378 21.3245 8.20459C22.8807 7.24228 24.9912 7.44479 26.592 8.20459Z" fill="#4D82D8"/>
<path d="M23.4375 9.1875C23.8088 9.1875 24.18 9.1875 24.5625 9.1875C24.6244 9.435 24.6862 9.6825 24.75 9.9375C25.1831 10.0613 25.6162 10.185 26.0625 10.3125C26.0006 10.6219 25.9388 10.9312 25.875 11.25C25.0483 11.4567 24.2843 11.4519 23.4375 11.4375C23.3756 11.6231 23.3138 11.8088 23.25 12C23.3723 12.0297 23.4946 12.0595 23.6206 12.0901C24.7077 12.3803 25.5129 12.6271 26.25 13.5C26.4098 14.0395 26.4161 14.4617 26.25 15C25.9089 15.4421 25.6119 15.632 25.125 15.9375C24.9394 15.9375 24.7537 15.9375 24.5625 15.9375C24.5625 16.3088 24.5625 16.68 24.5625 17.0625C24.1912 17.0625 23.82 17.0625 23.4375 17.0625C23.3756 16.7531 23.3138 16.4438 23.25 16.125C23.0412 16.1095 22.8323 16.0941 22.6172 16.0781C21.9375 15.9375 21.9375 15.9375 21.668 15.5508C21.6158 15.371 21.6158 15.371 21.5625 15.1875C21.7481 14.9091 21.7481 14.9091 21.9375 14.625C22.0956 14.6407 22.2536 14.6564 22.4165 14.6726C22.6219 14.6917 22.8274 14.7108 23.0391 14.7305C23.2435 14.75 23.448 14.7696 23.6587 14.7898C24.1784 14.8549 24.1784 14.8549 24.5625 14.625C24.5625 14.4394 24.5625 14.2537 24.5625 14.0625C24.4223 14.0035 24.2821 13.9446 24.1377 13.8838C23.953 13.8035 23.7684 13.7233 23.5781 13.6406C23.3954 13.5623 23.2127 13.484 23.0244 13.4033C22.4824 13.1157 22.1387 12.8478 21.75 12.375C21.6328 11.7305 21.6328 11.7305 21.75 11.0625C22.0913 10.6345 22.4031 10.4304 22.875 10.125C23.0606 10.125 23.2463 10.125 23.4375 10.125C23.4375 9.81563 23.4375 9.50625 23.4375 9.1875Z" fill="#F4F7FC"/>
</g>
<defs>
<clipPath id="clip0_2216_44">
<rect width="48" height="48" fill="white"/>
</clipPath>
</defs>
</svg>
