<svg width="48" height="48" viewBox="0 0 48 48" fill="none" xmlns="http://www.w3.org/2000/svg">
<path d="M31.75 10.5C31.82 10.5555 31.82 10.5555 31.8914 10.6121C32.2417 10.8933 32.5733 11.1921 32.9 11.5C32.9366 11.5345 32.9732 11.569 33.0109 11.6045C33.2816 11.8671 33.5148 12.1558 33.75 12.45C33.7974 12.5074 33.845 12.5648 33.8926 12.6221C35.1775 14.1798 36.0161 16.0424 36.5906 17.9656C36.6039 18.0096 36.6172 18.0537 36.6309 18.099C36.674 18.2486 36.7121 18.399 36.75 18.55C36.7623 18.5967 36.7623 18.5967 36.7749 18.6443C36.9749 19.4216 36.9778 20.1916 36.9732 20.9892C36.9723 21.1805 36.9726 21.3718 36.9728 21.5631C36.9729 21.8934 36.9723 22.2237 36.9711 22.554C36.9695 23.0316 36.969 23.5091 36.9687 23.9867C36.9683 24.7617 36.967 25.5368 36.9651 26.3118C36.9632 27.0641 36.9618 27.8163 36.961 28.5685C36.9609 28.615 36.9609 28.6615 36.9608 28.7094C36.9606 28.9426 36.9603 29.1759 36.9601 29.4091C36.958 31.3394 36.9545 33.2697 36.95 35.2C36.8166 35.2015 36.6832 35.2026 36.5498 35.2035C36.5126 35.204 36.4754 35.2045 36.437 35.2049C34.9345 35.2123 33.6141 34.4506 32.55 33.45C32.5205 33.4237 32.491 33.3974 32.4605 33.3703C31.8116 32.7675 31.3468 31.9207 30.9656 31.1313C30.9484 31.096 30.9312 31.0607 30.9135 31.0244C30.8555 30.9008 30.8027 30.7759 30.75 30.65C30.7251 30.5912 30.7003 30.5323 30.6746 30.4717C30.4542 29.9207 30.4084 29.4362 30.4161 28.8473C30.4162 28.7552 30.4161 28.6631 30.416 28.571C30.4159 28.3744 30.4167 28.1779 30.4182 27.9813C30.4206 27.6695 30.4206 27.3577 30.4204 27.0459C30.4201 26.3276 30.4229 25.6093 30.4256 24.8911C30.4282 24.2325 30.43 23.5739 30.4295 22.9153C30.4293 22.6064 30.4306 22.2975 30.433 21.9885C30.4342 21.7951 30.4341 21.6018 30.4338 21.4084C30.4338 21.3199 30.4344 21.2313 30.4356 21.1428C30.4583 19.3428 29.4703 17.6166 28.25 16.35C28.2173 16.3142 28.1846 16.2783 28.151 16.2414C26.9893 15.0029 25.1992 14.4694 23.55 14.4C23.215 14.3959 22.8832 14.4167 22.55 14.45C22.4947 14.4555 22.4947 14.4555 22.4383 14.4611C20.7896 14.6424 19.3145 15.4459 18.15 16.6C18.1106 16.6388 18.0711 16.6776 18.0305 16.7176C17.2317 17.5537 16.6913 18.6385 16.4 19.75C16.3914 19.7817 16.3828 19.8134 16.3739 19.8461C16.2956 20.1597 16.285 20.4594 16.2849 20.7816C16.2844 20.8384 16.284 20.8951 16.2836 20.9536C16.2823 21.1414 16.2817 21.3292 16.2811 21.517C16.2803 21.6499 16.2794 21.7827 16.2786 21.9156C16.2767 22.1971 16.2753 22.4785 16.274 22.76C16.272 23.1968 16.2691 23.6335 16.2661 24.0703C16.2651 24.2151 16.2641 24.3599 16.2631 24.5047C16.2628 24.5403 16.2626 24.576 16.2623 24.6127C16.2597 25.0021 16.2572 25.3914 16.2548 25.7808C16.2544 25.8483 16.2539 25.9158 16.2535 25.9833C16.2517 26.2793 16.2498 26.5753 16.2481 26.8713C16.2454 27.3304 16.2424 27.7894 16.2374 28.2484C16.2356 28.4153 16.2343 28.5823 16.2336 28.7493C16.2285 29.97 16.2285 29.97 16 30.55C15.9831 30.5959 15.9661 30.6418 15.9487 30.6891C15.8992 30.8183 15.8461 30.9451 15.7906 31.0719C15.7712 31.1165 15.7518 31.1612 15.7318 31.2072C15.0067 32.8377 13.7407 34.1676 12.065 34.8223C11.3657 35.0663 10.6502 35.2038 9.90859 35.201C9.85992 35.2008 9.81124 35.2007 9.76108 35.2006C9.7061 35.2003 9.7061 35.2003 9.65 35.2C9.64312 33.2148 9.63784 31.2296 9.63468 29.2445C9.6343 29.0095 9.63392 28.7745 9.63352 28.5395C9.63344 28.4928 9.63336 28.446 9.63328 28.3978C9.63198 27.6429 9.62962 26.8879 9.62685 26.133C9.62404 25.357 9.62238 24.5809 9.62177 23.8049C9.62136 23.327 9.62008 22.8491 9.61762 22.3711C9.61603 22.0423 9.61556 21.7135 9.61595 21.3847C9.61614 21.1957 9.61587 21.0067 9.61424 20.8177C9.60676 19.9074 9.6876 19.0761 9.95 18.2C9.96157 18.1604 9.97314 18.1207 9.98507 18.0799C10.0486 17.8628 10.1173 17.6483 10.1906 17.4344C10.2064 17.3877 10.2064 17.3877 10.2225 17.3401C10.3997 16.8179 10.6015 16.3121 10.8433 15.8165C10.9016 15.6967 10.9582 15.5761 11.0146 15.4555C11.4299 14.5828 11.9456 13.7547 12.55 13C12.5868 12.9537 12.6236 12.9073 12.6615 12.8596C13.3645 11.9872 14.1425 11.161 15.05 10.5C15.1057 10.4584 15.1615 10.4167 15.2172 10.375C15.9155 9.85863 16.6612 9.41325 17.45 9.05C17.4888 9.0321 17.5276 9.0142 17.5677 8.99575C19.0832 8.30521 20.6528 7.91835 22.3 7.7C22.3455 7.69354 22.3911 7.68708 22.438 7.68042C25.5959 7.24028 29.2939 8.52114 31.75 10.5Z" fill="#0E7CE9"/>
<path d="M24.6987 8.88696C24.8648 8.8875 25.031 8.88697 25.1972 8.88633C25.8542 8.88588 26.4981 8.91794 27.15 9C27.2062 9.00677 27.2624 9.01354 27.3204 9.02051C27.4639 9.03884 27.6069 9.0593 27.75 9.08125C27.8281 9.09323 27.8281 9.09323 27.9078 9.10544C28.4144 9.18733 28.9149 9.29508 29.4156 9.40625C29.4554 9.41505 29.4952 9.42384 29.5361 9.4329C29.65 9.45822 29.7638 9.4839 29.8775 9.50977C29.9285 9.52117 29.9285 9.52117 29.9804 9.53279C30.1645 9.5753 30.3228 9.62912 30.5 9.7C30.5 13.1155 30.5 16.531 30.5 20.05C30.467 20.05 30.434 20.05 30.4 20.05C30.2889 19.8106 30.1884 19.5713 30.099 19.3229C29.728 18.2966 29.192 17.353 28.45 16.55C28.4264 16.5242 28.4028 16.4985 28.3785 16.4719C27.1259 15.1174 25.3692 14.4766 23.55 14.4C23.215 14.3959 22.8832 14.4167 22.55 14.45C22.5131 14.4537 22.4762 14.4573 22.4383 14.4611C20.7896 14.6424 19.3145 15.4459 18.15 16.6C18.1106 16.6388 18.0711 16.6776 18.0305 16.7176C17.2317 17.5537 16.6913 18.6385 16.4 19.75C16.3914 19.7817 16.3828 19.8134 16.3739 19.8461C16.2956 20.1597 16.285 20.4594 16.2849 20.7816C16.2844 20.8384 16.284 20.8951 16.2836 20.9536C16.2823 21.1414 16.2817 21.3292 16.2811 21.517C16.2803 21.6499 16.2794 21.7827 16.2786 21.9156C16.2768 22.1971 16.2753 22.4785 16.274 22.76C16.272 23.1968 16.2691 23.6335 16.2661 24.0703C16.2651 24.2151 16.2641 24.3599 16.2631 24.5047C16.2628 24.5403 16.2626 24.576 16.2623 24.6127C16.2597 25.0021 16.2572 25.3914 16.2548 25.7808C16.2544 25.8483 16.2539 25.9158 16.2535 25.9833C16.2517 26.2793 16.2498 26.5753 16.2481 26.8713C16.2454 27.3304 16.2424 27.7894 16.2374 28.2484C16.2356 28.4153 16.2343 28.5823 16.2336 28.7493C16.2285 29.97 16.2285 29.97 16 30.55C15.9831 30.5959 15.9661 30.6418 15.9487 30.689C15.8992 30.8183 15.8461 30.9451 15.7906 31.0719C15.7712 31.1165 15.7518 31.1612 15.7318 31.2072C15.0067 32.8377 13.7407 34.1676 12.065 34.8223C11.2789 35.0966 10.5742 35.1726 9.75 35.15C9.85761 35.0403 9.96614 34.9496 10.0906 34.8594C11.3424 33.886 12.0748 32.5179 12.6 31.05C12.6171 31.0035 12.6341 30.957 12.6517 30.9091C12.7947 30.5038 12.8801 30.093 12.9594 29.6719C12.9849 29.5384 13.0107 29.4051 13.0365 29.2717C13.0476 29.2134 13.0586 29.1552 13.07 29.0952C13.1 28.95 13.1 28.95 13.15 28.8C13.1833 28.5802 13.2039 28.3588 13.225 28.1375C13.2284 28.102 13.2318 28.0665 13.2353 28.03C13.3112 27.2036 13.3165 26.376 13.325 25.5469C13.3378 24.3265 13.3808 23.1151 13.5 21.9C13.5095 21.802 13.5095 21.802 13.5192 21.7021C13.5767 21.1266 13.6481 20.5572 13.7631 19.9904C13.7965 19.8181 13.8235 19.6465 13.8486 19.4729C14.0211 18.2923 14.3176 17.1129 14.75 16C14.7641 15.9631 14.7782 15.9262 14.7928 15.8882C15.0155 15.3087 15.2579 14.7478 15.55 14.2C15.5671 14.1676 15.5841 14.1351 15.6017 14.1017C16.7733 11.8856 18.6908 10.1604 21.0945 9.38926C22.29 9.02822 23.4553 8.88222 24.6987 8.88696Z" fill="#00A4EF"/>
<path d="M29.8656 9.2625C29.9066 9.28373 29.9476 9.30497 29.9898 9.32684C30.0472 9.35725 30.0472 9.35725 30.1057 9.38828C30.1396 9.40621 30.1735 9.42415 30.2085 9.44263C30.3035 9.50218 30.3741 9.56788 30.45 9.65C30.0964 9.61626 29.7563 9.53715 29.4103 9.45805C28.8636 9.33369 28.317 9.21933 27.7625 9.13437C27.7151 9.12704 27.6678 9.1197 27.619 9.11215C27.4628 9.08932 27.3066 9.06921 27.15 9.05C27.1158 9.04569 27.0816 9.04139 27.0463 9.03695C26.379 8.95489 25.7175 8.93286 25.0455 8.93422C24.8818 8.93437 24.718 8.93319 24.5543 8.93193C23.6753 8.92929 22.8104 9.00722 21.9531 9.20937C21.9085 9.21988 21.8638 9.23039 21.8178 9.24121C20.1 9.66269 18.5952 10.4956 17.35 11.75C17.3247 11.7754 17.2994 11.8009 17.2733 11.8271C16.1332 12.9883 15.1359 14.6541 14.7334 16.2398C14.7 16.35 14.7 16.35 14.6316 16.5033C14.1181 17.68 13.9174 19.0733 13.764 20.3395C13.7461 20.4811 13.7234 20.6217 13.7 20.7625C13.5788 21.5444 13.4983 22.3319 13.4467 23.1213C13.4445 23.1542 13.4424 23.1872 13.4402 23.2211C13.3954 23.9192 13.3847 24.6166 13.3797 25.3161C13.3664 26.9775 13.3065 28.5788 12.9 30.2C12.8868 30.2548 12.8868 30.2548 12.8733 30.3106C12.4948 31.8634 11.7158 33.3378 10.5937 34.475C10.5445 34.5253 10.5445 34.5253 10.4942 34.5766C10.2809 34.788 10.0616 34.9526 9.8 35.1C9.932 35.1165 10.064 35.133 10.2 35.15C10.2 35.1665 10.2 35.183 10.2 35.2C10.0185 35.2 9.837 35.2 9.65 35.2C9.64314 33.2148 9.63784 31.2296 9.63468 29.2445C9.6343 29.0095 9.63392 28.7745 9.63352 28.5395C9.63344 28.4928 9.63336 28.446 9.63328 28.3978C9.63198 27.6429 9.62962 26.8879 9.62685 26.133C9.62404 25.357 9.62238 24.5809 9.62177 23.8049C9.62136 23.327 9.62008 22.8491 9.61762 22.3711C9.61603 22.0423 9.61556 21.7135 9.61595 21.3847C9.61614 21.1957 9.61587 21.0067 9.61424 20.8177C9.60676 19.9074 9.6876 19.0761 9.95 18.2C9.96157 18.1604 9.97314 18.1207 9.98507 18.0799C10.0486 17.8628 10.1173 17.6483 10.1906 17.4344C10.2064 17.3877 10.2064 17.3877 10.2225 17.3401C10.3997 16.8179 10.6015 16.3121 10.8433 15.8165C10.9016 15.6967 10.9582 15.5761 11.0146 15.4555C11.4299 14.5828 11.9456 13.7547 12.55 13C12.5868 12.9537 12.6236 12.9073 12.6615 12.8596C13.3645 11.9872 14.1425 11.161 15.05 10.5C15.1057 10.4584 15.1615 10.4167 15.2172 10.375C15.9155 9.85863 16.6612 9.41324 17.45 9.05C17.4888 9.0321 17.5276 9.0142 17.5677 8.99575C19.0832 8.30521 20.6528 7.91835 22.3 7.7C22.3455 7.69354 22.3911 7.68708 22.438 7.68042C24.9089 7.33602 27.6839 8.13081 29.8656 9.2625Z" fill="#0640B5"/>
<path d="M37.25 2.05C37.4458 2.18816 37.6242 2.3374 37.8 2.5C37.8364 2.53236 37.8727 2.56471 37.9102 2.59805C38.5831 3.2273 39.0249 4.21271 39.0619 5.13086C39.0807 6.02628 38.9401 6.8033 38.425 7.55625C38.3183 7.72696 38.3183 7.72696 38.3109 7.92246C38.3491 8.03784 38.3945 8.14201 38.45 8.25C38.606 8.62264 38.669 9.01821 38.5437 9.40938C38.4291 9.68141 38.2341 9.80568 37.9781 9.94063C37.2369 10.1826 36.3696 9.90874 35.6937 9.5875C35.3935 9.44997 35.1464 9.42464 34.8229 9.41578C33.9396 9.3874 33.1151 9.026 32.45 8.45C32.4098 8.41958 32.3696 8.38916 32.3281 8.35781C31.776 7.89324 31.3876 7.15898 31.2062 6.46875C31.1033 6.09873 30.8887 5.83514 30.6613 5.53335C30.2759 5.00948 29.9417 4.33771 29.9793 3.67168C30.0277 3.38736 30.1367 3.18362 30.3656 3.00625C30.8313 2.71388 31.3601 2.77398 31.8795 2.86348C32.0112 2.8622 32.0112 2.8622 32.1006 2.73906C32.1334 2.69317 32.1662 2.64728 32.2 2.6C33.5898 1.28792 35.6125 1.04662 37.25 2.05ZM30.9312 3.74063C30.7156 4.03095 30.7366 4.33083 30.7687 4.67773C30.8189 4.95398 30.9274 5.19882 31.05 5.45C31.1051 5.28477 31.1192 5.13576 31.1375 4.9625C31.2015 4.42805 31.385 3.9415 31.6 3.45C31.3435 3.45 31.1318 3.58759 30.9312 3.74063ZM37.8 8.3C37.7544 8.34177 37.7544 8.34177 37.7078 8.38438C37.4327 8.62389 37.1634 8.80998 36.8375 8.97188C36.8045 8.98834 36.7714 9.00481 36.7374 9.02178C36.5288 9.1218 36.324 9.19226 36.1 9.25C36.1165 9.283 36.133 9.316 36.15 9.35C36.5745 9.45885 37.0528 9.44173 37.45 9.25C37.7124 9.05479 37.7902 8.82099 37.8436 8.50684C37.8591 8.39736 37.8591 8.39736 37.8 8.3Z" fill="#0E7AE6"/>
<path d="M36.2906 3.48438C36.8039 3.86697 37.2117 4.34988 37.3373 4.99531C37.4155 5.63985 37.2839 6.25831 36.9187 6.8C36.5534 7.25948 35.9916 7.64343 35.3984 7.71169C34.7172 7.75554 34.1336 7.64926 33.5994 7.19316C33.5502 7.14705 33.5502 7.14705 33.5 7.1C33.4687 7.0708 33.4375 7.04161 33.4053 7.01152C32.9368 6.52671 32.7849 5.93289 32.7843 5.27938C32.795 4.6831 33.0495 4.21837 33.4551 3.78867C34.2306 3.05703 35.3682 2.90946 36.2906 3.48438Z" fill="#3ABBFA"/>
<path d="M40.9248 41.6012C41.4558 42.0203 41.7513 42.5847 41.85 43.25C41.9222 44.1 41.7654 44.9324 41.2242 45.6152C40.7303 46.1988 40.1116 46.55 39.35 46.65C38.5001 46.6945 37.7885 46.5738 37.1125 46.0156C36.5814 45.5131 36.347 44.8805 36.325 44.1563C36.3365 43.3662 36.6004 42.5733 37.15 41.9918C38.1787 41.0475 39.734 40.7865 40.9248 41.6012ZM37.5877 42.5256C37.1836 43.0988 37.0814 43.7637 37.15 44.45C37.2553 44.968 37.4965 45.4364 37.9418 45.7357C37.9954 45.7676 37.9954 45.7676 38.05 45.8C38.102 45.831 38.102 45.831 38.1551 45.8627C38.5962 46.0802 39.1578 46.0756 39.6273 45.9541C40.1638 45.7438 40.5684 45.423 40.8223 44.9016C41.1126 44.2314 41.15 43.5267 40.9068 42.8355C40.7368 42.43 40.4103 42.0605 40.001 41.8867C39.0956 41.6088 38.2145 41.7722 37.5877 42.5256Z" fill="#13CBDB"/>
<path d="M0.9 40.95C1.06644 41.0055 1.10074 41.0463 1.20937 41.1781C1.33416 41.3255 1.46211 41.4648 1.6 41.6C1.72383 41.722 1.84102 41.8454 1.95312 41.9781C2.16996 42.2321 2.41155 42.4625 2.65109 42.6948C2.68315 42.7263 2.71521 42.7578 2.74824 42.7902C2.77744 42.8186 2.80663 42.8469 2.83671 42.8761C2.9 42.95 2.9 42.95 2.9 43.05C2.933 43.05 2.966 43.05 3 43.05C3 43.083 3 43.116 3 43.15C3.033 43.15 3.066 43.15 3.1 43.15C3.17051 43.2217 3.17051 43.2217 3.25312 43.3219C3.45649 43.561 3.67627 43.78 3.9 44C4.14963 44.2454 4.39303 44.4918 4.61973 44.7588C4.70873 44.8599 4.80473 44.9547 4.9 45.05C4.933 43.7795 4.966 42.509 5 41.2C5.2475 41.2165 5.495 41.233 5.75 41.25C5.75382 41.8989 5.74444 42.5457 5.71895 43.1941C5.71569 43.2801 5.71245 43.366 5.70922 43.4519C5.70248 43.6298 5.69562 43.8077 5.68866 43.9856C5.67979 44.2123 5.67124 44.439 5.66278 44.6657C5.65616 44.8423 5.64939 45.0188 5.64257 45.1954C5.63936 45.279 5.63619 45.3626 5.63307 45.4462C5.6173 45.8657 5.59842 46.2827 5.55 46.7C5.24269 46.4454 4.96032 46.1695 4.67812 45.8875C4.63201 45.842 4.58589 45.7965 4.53838 45.7496C4.49484 45.7062 4.4513 45.6627 4.40644 45.618C4.36678 45.5785 4.32711 45.539 4.28624 45.4984C4.2 45.4 4.2 45.4 4.2 45.3C4.167 45.3 4.134 45.3 4.1 45.3C4.03466 45.2334 4.03466 45.2334 3.95605 45.1371C3.80019 44.9537 3.63555 44.7818 3.46426 44.6129C3.43904 44.588 3.41383 44.563 3.38785 44.5373C3.28281 44.4337 3.17756 44.3302 3.07211 44.2269C2.99428 44.1506 2.91675 44.0739 2.83926 43.9973C2.79331 43.9522 2.74736 43.907 2.70001 43.8606C2.6 43.75 2.6 43.75 2.6 43.65C2.567 43.65 2.534 43.65 2.5 43.65C2.43477 43.5836 2.43477 43.5836 2.35625 43.4875C2.16616 43.2628 1.96038 43.0574 1.75002 42.8519C1.55507 42.6601 1.55507 42.6601 1.5 42.55C1.45873 43.4592 1.43639 44.3681 1.42187 45.2781C1.41971 45.4073 1.41753 45.5365 1.41533 45.6657C1.41007 45.9771 1.40498 46.2886 1.4 46.6C1.1525 46.5835 0.905 46.567 0.65 46.55C0.613397 46.367 0.594507 46.2532 0.603142 46.0758C0.605104 46.0324 0.607067 45.989 0.609089 45.9443C0.611528 45.8973 0.613966 45.8504 0.616479 45.802C0.61883 45.7521 0.621181 45.7021 0.623603 45.6507C0.631445 45.4858 0.639736 45.3209 0.648047 45.1561C0.653625 45.0414 0.659181 44.9268 0.664717 44.8122C0.676381 44.572 0.688257 44.3319 0.700293 44.0918C0.715718 43.7839 0.730691 43.4759 0.745515 43.1679C0.756942 42.9313 0.76857 42.6946 0.780264 42.458C0.785858 42.3444 0.7914 42.2308 0.796886 42.1173C0.804586 41.9587 0.812546 41.8001 0.820581 41.6415C0.822817 41.5944 0.825054 41.5474 0.827358 41.4989C0.829603 41.4557 0.831847 41.4124 0.83416 41.3679C0.836022 41.3304 0.837885 41.2929 0.839803 41.2543C0.850116 41.1488 0.871639 41.052 0.9 40.95Z" fill="#13C8D8"/>
<path d="M26.35 40.95C26.4964 41.0201 26.5941 41.0838 26.7033 41.2045C26.7455 41.2506 26.7455 41.2506 26.7886 41.2975C26.8181 41.3303 26.8477 41.3631 26.8781 41.3969C27.1355 41.6779 27.3972 41.951 27.6701 42.217C27.7718 42.3212 27.8667 42.4262 27.9613 42.5365C28.2073 42.8204 28.4783 43.0789 28.7472 43.3408C28.7862 43.3793 28.8252 43.4178 28.8654 43.4574C28.9009 43.4921 28.9364 43.5267 28.9729 43.5624C29.05 43.65 29.05 43.65 29.05 43.75C29.083 43.75 29.116 43.75 29.15 43.75C29.2206 43.8217 29.2206 43.8217 29.3033 43.9219C29.5061 44.1604 29.7244 44.38 29.9469 44.6C29.9858 44.6387 30.0248 44.6775 30.0649 44.7174C30.1598 44.8117 30.2549 44.9059 30.35 45C30.4124 44.6074 30.4113 44.2137 30.4158 43.8172C30.4169 43.7415 30.4179 43.6659 30.419 43.5902C30.4217 43.3923 30.4242 43.1944 30.4266 42.9964C30.4291 42.794 30.4319 42.5915 30.4347 42.3891C30.44 41.9927 30.4451 41.5964 30.45 41.2C30.714 41.2165 30.978 41.233 31.25 41.25C31.2473 41.3227 31.2446 41.3954 31.2418 41.4703C31.2032 42.5113 31.1651 43.5523 31.127 44.5933C31.1183 44.8317 31.1096 45.0701 31.1009 45.3085C31.0839 45.7723 31.067 46.2362 31.05 46.7C30.8954 46.6099 30.7741 46.5371 30.6656 46.3938C30.5658 46.2492 30.5658 46.2492 30.45 46.2C30.45 46.167 30.45 46.134 30.45 46.1C30.417 46.1 30.384 46.1 30.35 46.1C30.2838 46.0325 30.2838 46.0325 30.2045 45.9355C30.0524 45.7566 29.8924 45.5885 29.7252 45.4238C29.7011 45.4 29.677 45.3762 29.6521 45.3516C29.5519 45.2527 29.4514 45.154 29.3507 45.0555C29.2764 44.9827 29.2023 44.9095 29.1283 44.8363C29.0625 44.7718 29.0625 44.7718 28.9954 44.706C28.9 44.6 28.9 44.6 28.9 44.5C28.8708 44.4877 28.8416 44.4754 28.8115 44.4627C28.6815 44.3896 28.6119 44.3108 28.5156 44.1969C28.2603 43.9051 27.9867 43.6338 27.7102 43.3621C27.5049 43.1592 27.3093 42.9518 27.1216 42.7325C27.0669 42.6695 27.0091 42.6091 26.95 42.55C26.9492 42.604 26.9492 42.604 26.9484 42.6591C26.9435 43.0031 26.9383 43.3472 26.933 43.6912C26.9303 43.868 26.9276 44.0447 26.9251 44.2215C26.9138 45.0151 26.8984 45.8076 26.85 46.6C26.6025 46.5835 26.355 46.567 26.1 46.55C26.0957 45.9542 26.1109 45.3632 26.142 44.7684C26.1464 44.6817 26.1507 44.595 26.1551 44.5084C26.1642 44.3283 26.1734 44.1482 26.1827 43.9681C26.1945 43.7395 26.2061 43.5108 26.2177 43.2822C26.2288 43.0609 26.2401 42.8396 26.2514 42.6184C26.2534 42.5774 26.2555 42.5363 26.2577 42.4941C26.2839 41.979 26.314 41.4645 26.35 40.95Z" fill="#13C9D9"/>
<path d="M37.3309 3.00898C37.8751 3.51352 38.2221 4.15812 38.2637 4.90527C38.2932 5.77688 38.0443 6.50888 37.4709 7.17637C36.9445 7.71471 36.2674 8.0061 35.5201 8.01903C34.6267 8.01714 33.9656 7.77711 33.3031 7.16074C32.6915 6.50395 32.5236 5.7154 32.5453 4.85422C32.5541 4.65924 32.5869 4.4842 32.65 4.3C32.6628 4.26036 32.6757 4.22072 32.6889 4.17988C32.9817 3.36411 33.5894 2.82181 34.35 2.45C35.3746 2.04372 36.5089 2.32441 37.3309 3.00898ZM33.3279 3.90293C32.8565 4.49021 32.7367 5.06466 32.8 5.8C32.9031 6.41459 33.2784 6.97234 33.7744 7.34297C33.8969 7.41996 34.0199 7.48681 34.15 7.55C34.1995 7.57543 34.1995 7.57543 34.25 7.60137C34.6994 7.79182 35.3394 7.77458 35.7969 7.62188C35.8826 7.58415 35.967 7.54342 36.05 7.5C36.0967 7.4757 36.1433 7.4514 36.1914 7.42637C36.7579 7.09903 37.0964 6.60311 37.2875 5.9875C37.4325 5.40592 37.3599 4.85899 37.0857 4.32481C36.7058 3.71631 36.1924 3.34672 35.4994 3.1752C34.6583 3.03336 33.913 3.27581 33.3279 3.90293Z" fill="#0742B7"/>
<path d="M22.15 41C22.183 41 22.216 41 22.25 41C22.6555 41.7043 23.0582 42.4099 23.45 43.1219C23.4663 43.1515 23.4827 43.1812 23.4995 43.2118C23.6339 43.4561 23.768 43.7006 23.9021 43.9451C24.0071 44.1365 24.1122 44.3278 24.2174 44.5191C24.2514 44.5809 24.2854 44.6428 24.3194 44.7047C24.5427 45.1116 24.7703 45.5154 25.0174 45.9084C25.0653 45.9868 25.1082 46.0682 25.15 46.15C25.085 46.3449 25.0027 46.3786 24.8313 46.4875C24.7824 46.5192 24.7335 46.5509 24.6832 46.5836C24.55 46.65 24.55 46.65 24.4 46.6C24.3434 46.5144 24.3434 46.5144 24.29 46.4027C24.26 46.341 24.26 46.341 24.2293 46.278C24.2083 46.2337 24.1873 46.1894 24.1656 46.1437C24.1214 46.0526 24.077 45.9614 24.0326 45.8703C24.0105 45.8248 23.9884 45.7793 23.9656 45.7324C23.8554 45.51 23.7369 45.2921 23.6169 45.0748C23.5 44.8604 23.5 44.8604 23.5 44.75C23.2101 44.7632 22.9202 44.7765 22.6302 44.79C22.5318 44.7945 22.4334 44.799 22.3349 44.8035C22.1927 44.81 22.0504 44.8166 21.9082 44.8232C21.8648 44.8252 21.8215 44.8271 21.7768 44.8291C21.4833 44.8431 21.1921 44.8681 20.9 44.9C20.8783 44.9512 20.8567 45.0025 20.8343 45.0553C20.7538 45.245 20.6723 45.4344 20.5906 45.6236C20.5553 45.7056 20.5203 45.7877 20.4855 45.8699C20.4356 45.988 20.3847 46.1056 20.3336 46.2232C20.3182 46.2602 20.3028 46.2971 20.287 46.3351C20.1747 46.59 20.1747 46.59 20.0523 46.6396C19.8914 46.656 19.8136 46.5727 19.6875 46.4781C19.6429 46.4452 19.5983 46.4123 19.5523 46.3783C19.5186 46.3525 19.4848 46.3266 19.45 46.3C19.4806 46.0982 19.5456 45.9439 19.6404 45.7637C19.6693 45.7085 19.6981 45.6533 19.7278 45.5965C19.7592 45.5372 19.7905 45.478 19.8219 45.4187C19.8542 45.3571 19.8865 45.2955 19.9188 45.2338C20.0121 45.0557 20.106 44.8778 20.2 44.7C20.2616 44.5832 20.3232 44.4665 20.3848 44.3497C20.4225 44.2781 20.4603 44.2065 20.4982 44.135C20.6334 43.8787 20.7664 43.6213 20.8986 43.3635C20.9164 43.3288 20.9342 43.2941 20.9526 43.2583C20.9706 43.2231 20.9887 43.1878 21.0074 43.1515C21.3782 42.4286 21.7551 41.7102 22.15 41ZM22.15 42.3C22.0455 42.5052 21.9415 42.7106 21.8378 42.9161C21.8026 42.9859 21.7672 43.0556 21.7318 43.1252C21.5446 43.4927 21.365 43.8521 21.25 44.25C21.9019 44.2566 22.5492 44.2384 23.2 44.2C22.8862 43.5558 22.5462 42.9272 22.2 42.3C22.1835 42.3 22.167 42.3 22.15 42.3Z" fill="#13CBDB"/>
<path d="M32 2.9C31.9711 2.9495 31.9422 2.999 31.9125 3.05C31.815 3.21946 31.7292 3.39283 31.6465 3.56992C31.6 3.65 31.6 3.65 31.5 3.7C31.5165 3.634 31.533 3.568 31.55 3.5C31.1763 3.59716 31.1763 3.59716 30.9 3.85C30.7101 4.27492 30.7984 4.74318 30.956 5.16598C31.1322 5.60261 31.3564 5.9807 31.65 6.35C31.6725 6.37841 31.695 6.40682 31.7182 6.43608C32.6711 7.62307 34.2157 8.93468 35.75 9.25C35.8666 9.25201 35.9834 9.25216 36.1 9.25C36.1547 9.2665 36.2093 9.283 36.2656 9.3C36.6657 9.40848 37.0728 9.37623 37.45 9.2C37.7171 8.97186 37.7469 8.72933 37.8 8.4C37.8661 8.13575 38.0426 8.01139 38.25 7.85C38.4997 8.30649 38.6936 8.77662 38.5768 9.30508C38.473 9.63294 38.2801 9.7814 37.9781 9.94063C37.2369 10.1826 36.3696 9.90874 35.6937 9.5875C35.3935 9.44997 35.1464 9.42464 34.8229 9.41578C33.9396 9.3874 33.1151 9.026 32.45 8.45C32.4098 8.41958 32.3696 8.38916 32.3281 8.35781C31.776 7.89324 31.3876 7.15898 31.2062 6.46875C31.1033 6.09873 30.8887 5.83514 30.6613 5.53335C30.2759 5.00948 29.9417 4.33771 29.9793 3.67168C30.0277 3.38736 30.1367 3.18362 30.3656 3.00625C30.8709 2.68896 31.4454 2.77985 32 2.9Z" fill="#063EB0"/>
<path d="M43.25 41.2C43.514 41.2 43.778 41.2 44.05 41.2C44.05 42.0085 44.05 42.817 44.05 43.65C44.215 43.485 44.38 43.32 44.55 43.15C44.583 43.15 44.616 43.15 44.65 43.15C44.65 43.117 44.65 43.084 44.65 43.05C44.683 43.05 44.716 43.05 44.75 43.05C44.7701 43.0051 44.7701 43.0051 44.7906 42.9594C44.85 42.8501 44.9048 42.7793 45 42.7C45.033 42.7 45.066 42.7 45.1 42.7C45.1 42.667 45.1 42.634 45.1 42.6C45.133 42.6 45.166 42.6 45.2 42.6C45.2 42.567 45.2 42.534 45.2 42.5C45.2629 42.4383 45.2629 42.4383 45.3563 42.3625C45.5706 42.1805 45.77 41.9861 45.9688 41.7875C46.0152 41.7414 46.0152 41.7414 46.0625 41.6944C46.0918 41.665 46.121 41.6357 46.1512 41.6055C46.1906 41.566 46.1906 41.566 46.2307 41.5257C46.3108 41.4421 46.3108 41.4421 46.4 41.3C46.433 41.3 46.466 41.3 46.5 41.3C46.5718 41.3807 46.6401 41.4646 46.7063 41.55C46.7606 41.6196 46.7606 41.6196 46.816 41.6906C46.8437 41.7267 46.8714 41.7628 46.9 41.8C46.8257 41.9785 46.7266 42.0773 46.5813 42.2031C46.514 42.2622 46.514 42.2622 46.4453 42.3225C46.3734 42.3856 46.3734 42.3856 46.3 42.45C46.2018 42.5393 46.1039 42.6288 46.0063 42.7187C45.8493 42.8632 45.6921 43.0073 45.5338 43.1502C45.5067 43.1748 45.4796 43.1993 45.4516 43.2246C45.3761 43.293 45.3005 43.3613 45.2248 43.4295C45.0874 43.5558 45.0874 43.5558 44.95 43.75C45.676 44.476 46.402 45.202 47.15 45.95C47.0624 46.1689 47.0281 46.2401 46.8688 46.3906C46.8214 46.436 46.8214 46.436 46.773 46.4822C46.7369 46.5158 46.7369 46.5158 46.7 46.55C46.601 46.5005 46.601 46.5005 46.5 46.45C46.5 46.417 46.5 46.384 46.5 46.35C46.467 46.35 46.434 46.35 46.4 46.35C46.34 46.2889 46.34 46.2889 46.2656 46.1969C46.08 45.9776 45.8792 45.7768 45.675 45.575C45.4569 45.3591 45.245 45.1432 45.0473 44.9082C44.8729 44.7142 44.6849 44.533 44.4986 44.3505C44.4695 44.3218 44.4404 44.2931 44.4104 44.2635C44.3843 44.238 44.3582 44.2125 44.3314 44.1863C44.2311 44.08 44.1413 43.9641 44.05 43.85C44.05 44.7575 44.05 45.665 44.05 46.6C43.786 46.6 43.522 46.6 43.25 46.6C43.25 44.818 43.25 43.036 43.25 41.2Z" fill="#13C6D6"/>
<path d="M16.15 41.25C17.0389 41.25 17.0389 41.25 17.3594 41.2875C17.4159 41.2941 17.4159 41.2941 17.4735 41.3008C18.1118 41.3834 18.6846 41.6005 19.0926 42.1178C19.2855 42.394 19.3247 42.7179 19.2801 43.0467C19.2034 43.4005 19.0792 43.6705 18.85 43.95C18.8224 43.9838 18.7947 44.0177 18.7662 44.0525C18.3564 44.5045 17.7415 44.816 17.15 44.95C17.008 44.9547 17.008 44.9547 16.9 44.95C16.9165 44.983 16.933 45.016 16.95 45.05C16.9543 45.1626 16.9554 45.2752 16.9549 45.3879C16.9548 45.421 16.9547 45.4542 16.9547 45.4884C16.9544 45.5943 16.9538 45.7003 16.9531 45.8062C16.9529 45.8781 16.9526 45.9499 16.9524 46.0217C16.9519 46.1978 16.951 46.3739 16.95 46.55C16.686 46.55 16.422 46.55 16.15 46.55C16.15 44.801 16.15 43.052 16.15 41.25ZM16.9 41.9C16.9 42.7085 16.9 43.517 16.9 44.35C17.4539 44.2709 17.9161 44.089 18.2836 43.6502C18.4867 43.3392 18.5122 43.0117 18.45 42.65C18.3465 42.3906 18.2003 42.2101 17.9531 42.0781C17.8861 42.0504 17.8184 42.0242 17.75 42C17.6943 41.9794 17.6386 41.9587 17.5813 41.9375C17.3492 41.8831 17.3492 41.8831 16.9 41.9Z" fill="#13C6D6"/>
<path d="M14.35 41.1C14.35 41.3145 14.35 41.529 14.35 41.75C14.1549 41.7988 14.0024 41.8057 13.8023 41.8049C13.7419 41.8048 13.6815 41.8046 13.6193 41.8045C13.5428 41.804 13.4663 41.8036 13.3875 41.8031C13.1441 41.8021 12.9008 41.8011 12.65 41.8C12.65 42.394 12.65 42.988 12.65 43.6C13.1285 43.5835 13.607 43.567 14.1 43.55C14.1503 43.7007 14.1552 43.8021 14.1531 43.9594C14.1527 44.0044 14.1522 44.0495 14.1518 44.0959C14.1512 44.1303 14.1506 44.1646 14.15 44.2C13.9525 44.2012 13.7549 44.2021 13.5574 44.2027C13.457 44.2031 13.3567 44.2038 13.2564 44.2044C13.1622 44.2046 13.1622 44.2046 13.066 44.2049C12.9788 44.2053 12.9788 44.2053 12.8899 44.2057C12.75 44.2 12.75 44.2 12.65 44.15C12.65 44.7275 12.65 45.305 12.65 45.9C13.244 45.9 13.838 45.9 14.45 45.9C14.4748 46.2465 14.4748 46.2465 14.5 46.6C13.6313 46.6081 12.7694 46.579 11.9 46.55C11.9 44.801 11.9 43.052 11.9 41.25C14.05 41.1 14.05 41.1 14.35 41.1Z" fill="#13C5D5"/>
<path d="M10.1 41.1C10.1 41.3145 10.1 41.529 10.1 41.75C9.90492 41.7988 9.75245 41.8057 9.55235 41.8049C9.49194 41.8048 9.43153 41.8046 9.36929 41.8045C9.2928 41.804 9.21631 41.8036 9.1375 41.8031C8.89413 41.8021 8.65075 41.8011 8.4 41.8C8.4165 42.394 8.433 42.988 8.45 43.6C8.912 43.5835 9.374 43.567 9.85 43.55C9.87475 43.847 9.87475 43.847 9.9 44.15C9.81009 44.2399 9.67451 44.2065 9.55332 44.2066C9.46288 44.2067 9.46288 44.2067 9.37061 44.2068C9.30709 44.2066 9.24357 44.2064 9.17813 44.2062C9.1148 44.2064 9.05148 44.2066 8.98623 44.2068C8.92587 44.2068 8.86551 44.2067 8.80332 44.2066C8.74761 44.2066 8.69189 44.2065 8.63449 44.2065C8.5 44.2 8.5 44.2 8.4 44.15C8.4 44.7275 8.4 45.305 8.4 45.9C8.994 45.9 9.588 45.9 10.2 45.9C10.2 46.131 10.2 46.362 10.2 46.6C9.34793 46.6079 8.5028 46.5794 7.65 46.55C7.65 44.801 7.65 43.052 7.65 41.25C9.75 41.1 9.75 41.1 10.1 41.1Z" fill="#13C5D5"/>
<path d="M30.5 28.75C30.5495 28.7748 30.5495 28.7748 30.6 28.8C30.6363 28.9158 30.6692 29.0326 30.7 29.15C31.0321 30.1992 31.5749 31.1717 32.3 32C32.3512 32.0621 32.3512 32.0621 32.4035 32.1254C33.3525 33.2424 34.8117 33.953 36.266 34.076C36.4777 34.0911 36.6872 34.0948 36.9 34.1C36.9 34.4465 36.9 34.793 36.9 35.15C35.7655 35.203 34.837 35.0177 33.85 34.45C33.7747 34.4067 33.7747 34.4067 33.6979 34.3625C32.3175 33.5214 31.4404 32.208 30.7988 30.759C30.7563 30.664 30.7114 30.57 30.6662 30.4762C30.4272 29.9228 30.4763 29.3417 30.5 28.75Z" fill="#00A2EC"/>
<path d="M36.2906 3.48438C36.8039 3.86697 37.2117 4.34988 37.3373 4.99531C37.4155 5.63985 37.2839 6.25831 36.9187 6.8C36.5534 7.25948 35.9916 7.64343 35.3984 7.71169C34.7172 7.75554 34.1336 7.64926 33.5994 7.19316C33.5502 7.14705 33.5502 7.14705 33.5 7.1C33.4687 7.0708 33.4375 7.04161 33.4053 7.01152C32.9368 6.52671 32.7849 5.93289 32.7843 5.27938C32.795 4.6831 33.0495 4.21837 33.4551 3.78867C34.2306 3.05703 35.3682 2.90946 36.2906 3.48438ZM33.7701 3.88887C33.5699 4.20621 33.5222 4.46429 33.525 4.83438C33.5253 4.87858 33.5256 4.92279 33.526 4.96834C33.5426 5.56781 33.7797 6.02541 34.2 6.45C34.6835 6.86835 35.1311 7.09118 35.7768 7.06875C36.2039 7.02252 36.5254 6.88371 36.8172 6.56445C37.0955 6.17984 37.1939 5.71632 37.15 5.25C37.0148 4.59183 36.6998 4.04403 36.15 3.65C35.3351 3.16745 34.4216 3.10804 33.7701 3.88887Z" fill="#38B9FA"/>
<path d="M33.1 41.25C33.3805 41.25 33.661 41.25 33.95 41.25C33.9335 42.768 33.917 44.286 33.9 45.85C34.4775 45.8665 35.055 45.883 35.65 45.9C35.65 46.131 35.65 46.362 35.65 46.6C34.7822 46.6081 33.9171 46.5821 33.05 46.55C33.0515 46.5134 33.053 46.4767 33.0545 46.439C33.0979 45.3441 33.1064 44.2509 33.1034 43.1552C33.1029 42.9393 33.1027 42.7233 33.1024 42.5073C33.1019 42.0882 33.101 41.6691 33.1 41.25Z" fill="#13C2D3"/>
<path d="M37.5496 2.60664C38.1446 3.10898 38.5674 3.82133 38.65 4.6C38.7099 5.55548 38.5451 6.39046 37.907 7.1412C37.5157 7.57769 37.056 7.86776 36.5 8.05C36.4549 8.06495 36.4099 8.07991 36.3635 8.09531C35.5824 8.32299 34.778 8.23382 34.0563 7.85937C33.606 7.59161 33.0306 7.20613 32.8625 6.6834C32.8563 6.64212 32.8563 6.64212 32.85 6.6C32.817 6.6 32.784 6.6 32.75 6.6C32.7099 6.50959 32.6705 6.41891 32.6313 6.32812C32.5982 6.25242 32.5982 6.25242 32.5645 6.1752C32.2698 5.37425 32.3126 4.47676 32.666 3.70605C33.1121 2.82969 33.835 2.25803 34.7625 1.95312C35.7698 1.71358 36.7267 2.0201 37.5496 2.60664ZM33.3 3.2C33.2714 3.22875 33.2428 3.25749 33.2133 3.28711C32.6547 3.88884 32.5185 4.62183 32.5328 5.41406C32.5686 6.14676 32.964 6.86104 33.5 7.35C34.2858 7.95076 35.09 8.10623 36.0668 7.97812C36.8318 7.79866 37.4277 7.32016 37.8475 6.67441C38.2649 5.99343 38.3664 5.15695 38.1938 4.38125C37.9718 3.6292 37.4499 3.02339 36.7781 2.62832C36.6539 2.56293 36.5291 2.50491 36.4 2.45C36.3627 2.43395 36.3255 2.4179 36.2871 2.40137C35.2309 2.01647 34.0512 2.42376 33.3 3.2Z" fill="#37B7F9"/>
<path d="M36.075 3.61934C36.608 3.94795 36.9452 4.45662 37.1188 5.05625C37.1998 5.55877 37.1617 6.03529 36.8693 6.46992C36.5727 6.82375 36.2534 7.02166 35.7932 7.06465C35.1853 7.08939 34.7268 6.90896 34.266 6.51484C34.062 6.31291 33.9002 6.09404 33.75 5.85C33.7158 5.79499 33.7158 5.79499 33.6809 5.73887C33.4565 5.29417 33.4693 4.66114 33.5924 4.18652C33.7718 3.79065 34.1178 3.4923 34.5197 3.3332C35.0976 3.18592 35.5711 3.33985 36.075 3.61934ZM34.1594 4.39375C33.917 4.74007 33.8507 5.03437 33.9 5.45C34.0221 5.97772 34.3101 6.37073 34.7455 6.68555C35.1331 6.9246 35.4494 6.94763 35.9 6.9C36.2208 6.81696 36.4027 6.67692 36.5781 6.39688C36.7719 6.04055 36.8134 5.66782 36.7193 5.27051C36.5165 4.70476 36.1179 4.30399 35.5844 4.04355C35.0405 3.86727 34.5393 3.9793 34.1594 4.39375Z" fill="#F7FCFE"/>
<path d="M43.25 41.2C43.514 41.2 43.778 41.2 44.05 41.2C44.05 41.563 44.05 41.926 44.05 42.3C44.017 42.3 43.984 42.3 43.95 42.3C43.9665 43.7025 43.983 45.105 44 46.55C43.769 46.55 43.538 46.55 43.3 46.55C43.2934 46.0887 43.2868 45.6274 43.2804 45.1661C43.2775 44.9517 43.2745 44.7373 43.2714 44.5229C43.2554 43.4152 43.2465 42.3078 43.25 41.2Z" fill="#14D3E3"/>
<path d="M38.2 7.85C38.4579 8.07618 38.571 8.46638 38.6 8.8C38.6191 9.09615 38.599 9.33804 38.45 9.6C38.147 9.91714 37.8344 10.0081 37.4094 10.025C36.3952 10.0028 35.4689 9.54121 34.6125 9.0375C34.5402 8.99544 34.5402 8.99544 34.4664 8.95254C33.8213 8.57299 33.8213 8.57299 33.65 8.4C33.65 8.3505 33.65 8.301 33.65 8.25C33.7833 8.31544 33.9131 8.3846 34.0418 8.45859C34.9334 9.0093 34.9334 9.0093 35.9219 9.25C36.1 9.25 36.1 9.25 36.2656 9.3C36.6656 9.40848 37.0728 9.37623 37.45 9.2C37.7174 8.97159 37.7463 8.72942 37.8 8.4C37.8683 8.14966 38.0142 8.02367 38.2 7.85Z" fill="#063CAC"/>
<path d="M31.25 6.3C31.283 6.3 31.316 6.3 31.35 6.3C31.41 6.36113 31.41 6.36113 31.4844 6.45313C31.9373 6.98457 32.4442 7.47743 33 7.9C33.0262 7.9203 33.0524 7.94061 33.0794 7.96152C33.469 8.26232 33.8737 8.53552 34.2906 8.79688C34.3336 8.82406 34.3765 8.85124 34.4208 8.87925C34.7034 9.05356 34.9878 9.18704 35.3 9.3C35.0102 9.49323 34.639 9.42228 34.3074 9.36914C33.6144 9.22443 32.985 8.91334 32.45 8.45C32.4098 8.41958 32.3696 8.38916 32.3281 8.35781C31.8253 7.93467 31.4561 7.26833 31.25 6.65C31.248 6.53335 31.2478 6.41665 31.25 6.3Z" fill="#0E77E3"/>
<path d="M32 2.9C32 2.9165 32 2.933 32 2.95C31.2328 2.97475 31.2328 2.97475 30.45 3C30.8239 2.62615 31.5443 2.80128 32 2.9Z" fill="#042C81"/>
<path d="M35.35 3.15C35.35 3.1665 35.35 3.183 35.35 3.2C35.3162 3.20245 35.2825 3.2049 35.2477 3.20742C35.2031 3.21116 35.1585 3.2149 35.1125 3.21875C35.0464 3.22397 35.0464 3.22397 34.9789 3.2293C34.8484 3.25026 34.7642 3.28533 34.65 3.35C34.4072 3.47142 34.2657 3.52129 34 3.45C34.3308 3.07515 34.8944 3.13227 35.35 3.15Z" fill="#2EA9F5"/>
<path d="M37.15 5.1C37.1665 5.1 37.183 5.1 37.2 5.1C37.2165 5.265 37.233 5.43 37.25 5.6C37.2665 5.435 37.283 5.27 37.3 5.1C37.3165 5.1 37.333 5.1 37.35 5.1C37.3606 5.45222 37.354 5.76206 37.25 6.1C37.2005 6.0835 37.151 6.067 37.1 6.05C37.1165 5.7365 37.133 5.423 37.15 5.1Z" fill="#2DAAF6"/>
<path d="M46.25 46.05C46.2724 46.0722 46.2947 46.0945 46.3178 46.1174C46.4088 46.2026 46.4964 46.2804 46.6 46.35C46.743 46.3525 46.743 46.3525 46.85 46.3C46.817 46.366 46.784 46.432 46.75 46.5C46.684 46.5 46.618 46.5 46.55 46.5C46.5335 46.4505 46.517 46.401 46.5 46.35C46.467 46.35 46.434 46.35 46.4 46.35C46.25 46.1769 46.25 46.1769 46.25 46.05Z" fill="#12B3C1"/>
<path d="M37.2 4.95C37.3 5.05 37.3 5.05 37.3098 5.18008C37.3086 5.22996 37.3074 5.27985 37.3063 5.33125C37.3053 5.38139 37.3044 5.43154 37.3035 5.4832C37.3018 5.54102 37.3018 5.54102 37.3 5.6C37.2505 5.62475 37.2505 5.62475 37.2 5.65C37.1903 5.54274 37.181 5.43544 37.1719 5.32812C37.164 5.2385 37.164 5.2385 37.1561 5.14707C37.1541 5.09854 37.1521 5.05 37.15 5C37.1665 4.9835 37.183 4.967 37.2 4.95Z" fill="#3DBEFB"/>
<path d="M33.15 7C33.2075 7.04771 33.2647 7.09568 33.3219 7.14375C33.3538 7.17043 33.3857 7.19712 33.4186 7.22461C33.5 7.3 33.5 7.3 33.55 7.4C33.3912 7.38299 33.3489 7.34877 33.2375 7.22813C33.15 7.1 33.15 7.1 33.15 7Z" fill="#37BAFA"/>
<path d="M35.5344 6.89688C35.5841 6.89733 35.6338 6.89778 35.685 6.89824C35.7419 6.89911 35.7419 6.89911 35.8 6.9C35.8 6.9165 35.8 6.933 35.8 6.95C35.7464 6.95722 35.6927 6.96444 35.6375 6.97188C35.4608 6.99367 35.4608 6.99367 35.3375 7.03438C35.25 7.05 35.25 7.05 35.1 6.95C35.2575 6.89751 35.3694 6.89493 35.5344 6.89688Z" fill="#BEEDFD"/>
<path d="M45.2 43.35C45.1303 43.5184 45.0511 43.5993 44.9 43.7C44.9 43.55 44.9 43.55 44.9938 43.4406C45.1 43.35 45.1 43.35 45.2 43.35Z" fill="#11A7B3"/>
<path d="M44.8 42.9C44.8165 42.9495 44.833 42.999 44.85 43.05C44.817 43.05 44.784 43.05 44.75 43.05C44.7665 43.0005 44.783 42.951 44.8 42.9ZM44.65 43.05C44.6995 43.0748 44.6995 43.0748 44.75 43.1C44.7005 43.1248 44.7005 43.1248 44.65 43.15C44.65 43.117 44.65 43.084 44.65 43.05ZM44.55 43.15C44.583 43.1665 44.616 43.183 44.65 43.2C44.6005 43.2743 44.6005 43.2743 44.55 43.35C44.5005 43.3335 44.451 43.317 44.4 43.3C44.4495 43.2505 44.499 43.201 44.55 43.15Z" fill="#0F9AA6"/>
<path d="M27.85 43.4C27.9734 43.4576 28.0524 43.5024 28.15 43.6C28.1335 43.6495 28.117 43.699 28.1 43.75C28.0146 43.6688 27.9313 43.5853 27.85 43.5C27.85 43.467 27.85 43.434 27.85 43.4Z" fill="#11AEBC"/>
<path d="M37.05 5.95C37.0995 5.9665 37.149 5.983 37.2 6C37.2 6.0825 37.2 6.165 37.2 6.25C37.134 6.25 37.068 6.25 37 6.25C37.0165 6.151 37.033 6.052 37.05 5.95Z" fill="#46C1FA"/>
</svg>
